<svg width="1213" height="1117" xmlns="http://www.w3.org/2000/svg" xmlns:xlink="http://www.w3.org/1999/xlink" xml:space="preserve" overflow="hidden"><defs><clipPath id="clip0"><rect x="1594" y="804" width="1213" height="1117"/></clipPath><clipPath id="clip1"><rect x="1853" y="815" width="694" height="692"/></clipPath><clipPath id="clip2"><rect x="1853" y="815" width="694" height="692"/></clipPath><clipPath id="clip3"><rect x="1853" y="815" width="694" height="692"/></clipPath></defs><g clip-path="url(#clip0)" transform="translate(-1594 -804)"><path d="M1606.5 1326 1862.25 814.5 2538.75 814.5 2794.5 1326 2538.75 1837.5 1862.25 1837.5Z" stroke="#000000" stroke-width="20.625" stroke-miterlimit="8" fill="#F2F2F2" fill-rule="evenodd"/><g clip-path="url(#clip1)"><g clip-path="url(#clip2)"><g clip-path="url(#clip3)"><path d="M468.542 578.973C464.77 578.977 461.147 577.501 458.45 574.865 429.769 547.57 404.741 516.677 383.988 482.958 363.243 447.764 352.593 407.536 353.208 366.688 353.708 358.741 360.555 352.704 368.502 353.205 368.522 353.205 368.542 353.207 368.562 353.208 376.509 353.708 382.546 360.555 382.045 368.502 382.045 368.522 382.043 368.542 382.042 368.562 381.905 403.693 391.19 438.218 408.929 468.542 428.298 499.989 451.654 528.797 478.417 554.249 484.111 559.814 484.215 568.942 478.648 574.635 475.985 577.36 472.351 578.92 468.542 578.973Z" transform="matrix(1 0 0 1 1854 815)"/><path d="M431.419 613.501C427.612 613.504 423.958 612.001 421.255 609.32 390.101 579.251 362.899 545.34 340.305 508.404 314.461 464.501 301.45 414.228 302.75 363.3 305.054 327.544 335.907 300.427 371.662 302.731 371.758 302.737 371.854 302.743 371.95 302.75 407.578 305.066 434.638 335.735 432.5 371.373 433.003 396.724 439.949 421.53 452.683 443.457 468.162 468.567 486.63 491.707 507.683 512.368 513.296 518.021 513.264 527.155 507.611 532.768 501.958 538.381 492.824 538.349 487.211 532.696 464.331 510.346 444.35 485.208 427.742 457.873 412.11 431.218 403.804 400.904 403.667 370.004 405.005 350.143 389.989 332.959 370.129 331.622 360.587 330.979 351.181 334.155 343.982 340.45 336.708 346.732 332.244 355.658 331.583 365.246 330.554 410.407 342.19 454.955 365.174 493.843 386.511 528.583 412.16 560.481 441.51 588.777 447.144 594.404 447.149 603.531 441.522 609.165 441.518 609.169 441.514 609.173 441.51 609.176 438.848 611.892 435.221 613.447 431.419 613.501Z" transform="matrix(1 0 0 1 1854 815)"/><path d="M291.361 643.488C289.713 643.478 288.08 643.185 286.531 642.623 279.032 639.947 275.123 631.699 277.798 624.2 277.802 624.19 277.806 624.18 277.809 624.17 288.694 594.039 311.04 575.297 336.125 575.297 361.21 575.297 382.618 593.39 393.791 622.512 396.618 629.955 392.876 638.281 385.433 641.108 385.432 641.108 385.431 641.108 385.43 641.109 377.986 643.936 369.661 640.194 366.834 632.751 366.833 632.75 366.833 632.749 366.832 632.747 360.128 615.087 348.379 603.914 336.197 603.914 324.015 603.914 311.472 615.88 304.985 634.333 302.793 639.925 297.365 643.572 291.361 643.488Z" transform="matrix(1 0 0 1 1854 815)"/><path d="M240.83 616.24C236.982 616.168 233.322 614.558 230.667 611.771 224.954 606.225 224.819 597.098 230.365 591.385 230.464 591.283 230.564 591.182 230.667 591.083 252.292 570.684 285.234 527.866 265.987 470.128 254.32 435.047 249.666 398.014 252.292 361.137L252.292 359.912C256.4 296.348 311.259 248.149 374.823 252.257 374.995 252.269 375.166 252.28 375.338 252.292 438.069 256.65 485.85 310.287 482.958 373.103 482.58 381.066 475.819 387.214 467.857 386.835 459.895 386.457 453.747 379.696 454.125 371.734 456.852 323.961 420.335 283.023 372.563 280.296 324.79 277.569 283.852 314.086 281.125 361.858L281.125 363.156C278.805 396.383 283.042 429.741 293.595 461.333 317.887 534.282 277.232 587.263 250.778 612.348 248.083 614.872 244.523 616.264 240.83 616.24ZM521.955 489.734C518.085 489.623 514.423 487.961 511.792 485.121 496.443 469.082 482.861 451.441 471.281 432.5 467.009 425.78 468.994 416.871 475.713 412.599 482.432 408.328 491.342 410.312 495.614 417.032 495.831 417.373 496.034 417.724 496.222 418.083 506.648 435.216 518.902 451.167 532.768 465.658 538.183 471.496 537.84 480.617 532.002 486.032 531.994 486.041 531.984 486.049 531.975 486.058 529.283 488.468 525.784 489.78 522.172 489.734Z" transform="matrix(1 0 0 1 1854 815)"/><path d="M189.147 569.026C185.017 569.039 181.081 567.281 178.334 564.196 173.037 558.251 173.564 549.138 179.508 543.842 179.526 543.827 179.542 543.812 179.56 543.797 197.364 528.01 217.331 501.267 211.709 463.28 210.916 458.09 210.051 452.827 209.258 447.637 203.416 417.977 200.997 387.745 202.05 357.533L202.05 356.524C208.168 265.164 287.19 196.063 378.549 202.181 378.608 202.186 378.667 202.189 378.726 202.194 462.991 207.816 532.191 277.088 533.417 356.524 533.936 370.984 540.468 384.571 551.438 394.007 557.149 399.511 557.342 408.594 551.87 414.335 546.386 420.107 537.261 420.341 531.488 414.857 531.483 414.851 531.476 414.845 531.47 414.84 515.012 400.093 505.299 379.259 504.583 357.173 503.862 292.298 446.917 236.001 377.14 231.315 301.695 225.88 236.13 282.634 230.694 358.078 230.685 358.209 230.676 358.34 230.667 358.47L230.667 359.48C229.869 387.56 232.289 415.638 237.875 443.168 238.74 448.43 239.533 453.692 240.326 459.027 248.327 512.44 217.764 548.554 198.806 565.35 196.151 567.727 192.71 569.037 189.147 569.026Z" transform="matrix(1 0 0 1 1854 815)"/><path d="M532.335 262.455C527.76 262.461 523.453 260.294 520.73 256.617 487.364 211.811 435.93 184.01 380.167 180.641 332.642 177.37 285.661 192.377 248.832 222.593 243.082 228.101 233.956 227.904 228.448 222.154 222.941 216.404 223.137 207.279 228.887 201.771 229.441 201.241 230.036 200.755 230.667 200.32 273.08 165.42 327.247 148.086 382.042 151.88 446.267 155.826 505.492 187.864 543.941 239.461 548.527 245.917 547.047 254.865 540.625 259.5 538.238 261.325 535.339 262.358 532.335 262.455Z" transform="matrix(1 0 0 1 1854 815)"/><path d="M134.075 286.315C132.22 286.306 130.384 285.939 128.669 285.234 121.432 282.238 117.912 274.012 120.74 266.708 164.317 160.494 270.869 93.9858 385.43 101.493 415.616 103.575 445.242 110.69 473.083 122.542 480.528 125.363 484.277 133.686 481.455 141.131 478.635 148.577 470.311 152.326 462.866 149.504 462.518 149.373 462.175 149.227 461.838 149.068 436.953 138.59 410.497 132.33 383.555 130.543 281.395 123.627 186.272 182.86 147.41 277.593 145.122 282.916 139.869 286.352 134.075 286.315Z" transform="matrix(1 0 0 1 1854 815)"/><path d="M209.979 123.479C202.017 123.53 195.521 117.117 195.47 109.155 195.437 104.083 198.073 99.3661 202.41 96.7358 251.34 66.8538 307.482 50.8559 364.814 50.4583 372.671 50.4583 380.816 50.4583 388.817 51.1792 396.78 51.7166 402.799 58.6068 402.261 66.569 401.723 74.5313 394.834 80.5502 386.871 80.0125 379.663 79.5079 372.455 79.2917 365.246 79.3637 313.157 79.7097 262.146 94.2381 217.692 121.388 215.391 122.849 212.702 123.577 209.979 123.479Z" transform="matrix(1 0 0 1 1854 815)"/><path d="M142.797 519.937C134.835 519.936 128.381 513.481 128.383 505.518 128.383 500.763 130.728 496.314 134.652 493.627 150.51 482.67 160.674 473.371 157.574 443.817 156.997 438.339 156.277 432.788 155.628 427.166 151.939 402.964 150.658 378.456 151.807 354.001L151.807 353.208C154.511 311.071 169.552 270.66 195.057 237.01 199.407 230.341 208.34 228.461 215.009 232.811 221.678 237.161 223.558 246.093 219.208 252.762 218.837 253.33 218.427 253.872 217.98 254.382 195.873 283.619 182.862 318.716 180.569 355.299L180.569 356.02C179.624 378.719 180.855 401.457 184.245 423.922 184.966 429.617 185.615 435.311 186.191 440.934 191.021 485.986 170.549 504.079 150.942 517.486 148.536 519.104 145.697 519.958 142.797 519.937Z" transform="matrix(1 0 0 1 1854 815)"/></g></g></g><text font-family="Amasis MT Pro Black,Amasis MT Pro Black_MSFontService,sans-serif" font-weight="900" font-size="165" transform="matrix(1 0 0 1 1970.55 1642)">make<tspan font-size="165" x="-59.2968" y="140">unique</tspan></text></g></svg>